ModelForces
version=1
nRows=4
nColumns=155
inDegrees=no

This file contains the forces exerted on a model during a simulation.

A force is a generalized force, meaning that it can be either a force (N) or a torque (Nm).

Units are S.I. units (second, meters, Newtons, ...)
Angles are in degrees.

endheader
time	glut_med1_r	glut_med2_r	glut_med3_r	glut_min1_r	glut_min2_r	glut_min3_r	semimem_r	semiten_r	bifemlh_r	bifemsh_r	sar_r	add_long_r	add_brev_r	add_mag1_r	add_mag2_r	add_mag3_r	tfl_r	pect_r	grac_r	glut_max1_r	glut_max2_r	glut_max3_r	iliacus_r	psoas_r	quad_fem_r	gem_r	peri_r	rect_fem_r	vas_med_r	vas_int_r	vas_lat_r	med_gas_r	lat_gas_r	soleus_r	tib_post_r	flex_dig_r	flex_hal_r	tib_ant_r	per_brev_r	per_long_r	per_tert_r	ext_dig_r	ext_hal_r	glut_med1_l	glut_med2_l	glut_med3_l	glut_min1_l	glut_min2_l	glut_min3_l	semimem_l	semiten_l	bifemlh_l	bifemsh_l	sar_l	add_long_l	add_brev_l	add_mag1_l	add_mag2_l	add_mag3_l	tfl_l	pect_l	grac_l	glut_max1_l	glut_max2_l	glut_max3_l	iliacus_l	psoas_l	quad_fem_l	gem_l	peri_l	rect_fem_l	vas_med_l	vas_int_l	vas_lat_l	med_gas_l	lat_gas_l	soleus_l	tib_post_l	flex_dig_l	flex_hal_l	tib_ant_l	per_brev_l	per_long_l	per_tert_l	ext_dig_l	ext_hal_l	ercspn_r	ercspn_l	intobl_r	intobl_l	extobl_r	extobl_l	femur_lat_meniscii_r.femur_lat_r.force.X	femur_lat_meniscii_r.femur_lat_r.force.Y	femur_lat_meniscii_r.femur_lat_r.force.Z	femur_lat_meniscii_r.femur_lat_r.torque.X	femur_lat_meniscii_r.femur_lat_r.torque.Y	femur_lat_meniscii_r.femur_lat_r.torque.Z	femur_lat_meniscii_r.meniscus_lat_r.force.X	femur_lat_meniscii_r.meniscus_lat_r.force.Y	femur_lat_meniscii_r.meniscus_lat_r.force.Z	femur_lat_meniscii_r.meniscus_lat_r.torque.X	femur_lat_meniscii_r.meniscus_lat_r.torque.Y	femur_lat_meniscii_r.meniscus_lat_r.torque.Z	femur_med_meniscii_r.femur_med_r.force.X	femur_med_meniscii_r.femur_med_r.force.Y	femur_med_meniscii_r.femur_med_r.force.Z	femur_med_meniscii_r.femur_med_r.torque.X	femur_med_meniscii_r.femur_med_r.torque.Y	femur_med_meniscii_r.femur_med_r.torque.Z	femur_med_meniscii_r.meniscus_med_r.force.X	femur_med_meniscii_r.meniscus_med_r.force.Y	femur_med_meniscii_r.meniscus_med_r.force.Z	femur_med_meniscii_r.meniscus_med_r.torque.X	femur_med_meniscii_r.meniscus_med_r.torque.Y	femur_med_meniscii_r.meniscus_med_r.torque.Z	femur_med_tibia_r.tibia_upper_r.force.X	femur_med_tibia_r.tibia_upper_r.force.Y	femur_med_tibia_r.tibia_upper_r.force.Z	femur_med_tibia_r.tibia_upper_r.torque.X	femur_med_tibia_r.tibia_upper_r.torque.Y	femur_med_tibia_r.tibia_upper_r.torque.Z	femur_med_tibia_r.femur_med_r.force.X	femur_med_tibia_r.femur_med_r.force.Y	femur_med_tibia_r.femur_med_r.force.Z	femur_med_tibia_r.femur_med_r.torque.X	femur_med_tibia_r.femur_med_r.torque.Y	femur_med_tibia_r.femur_med_r.torque.Z	femur_lat_tibia_r.tibia_upper_r.force.X	femur_lat_tibia_r.tibia_upper_r.force.Y	femur_lat_tibia_r.tibia_upper_r.force.Z	femur_lat_tibia_r.tibia_upper_r.torque.X	femur_lat_tibia_r.tibia_upper_r.torque.Y	femur_lat_tibia_r.tibia_upper_r.torque.Z	femur_lat_tibia_r.femur_lat_r.force.X	femur_lat_tibia_r.femur_lat_r.force.Y	femur_lat_tibia_r.femur_lat_r.force.Z	femur_lat_tibia_r.femur_lat_r.torque.X	femur_lat_tibia_r.femur_lat_r.torque.Y	femur_lat_tibia_r.femur_lat_r.torque.Z	aACL_R	pACL_R	aPCL_R	pPCL_R	aMCL_R	mMCL_R	pMCL_R	aLCL_R	mLCL_R	pLCL_R	aPCL_L	pPCL_L	aMCL_L	aLCL_L
      0.16510326	     11.40356362	      8.32572075	      8.95445891	      3.84447746	      4.46929393	      4.83541263	      0.00000000	    168.00057690	    134.29326546	    291.62889767	    131.27618902	      8.28597754	      5.96706537	      3.57731661	      3.63038412	      6.11824954	      4.96462606	      3.24499889	    100.72591770	      5.37574409	      8.17783493	      6.14528895	     27.51045360	     18.48731928	      5.28630232	      3.64993778	      6.23600534	     54.32795979	     31.12308031	     33.22862635	     44.79449869	      0.00000000	      0.00000000	      0.00000000	      0.00000000	      0.00000000	      0.00000000	     34.33949288	      2.41223882	      2.98905541	     22.85694469	     42.69064366	     10.93830818	     11.40356362	      8.32572075	      8.95445891	      3.84447746	      4.46929393	      4.83541263	      0.00000000	      6.16880915	     12.17915127	     10.52167330	      2.19359333	      8.28597754	      5.96706537	      3.57731661	      3.63038412	      6.11824954	      5.41510908	      3.24499889	      2.26439978	      5.37574409	      8.17783493	      6.14528895	     27.51045360	     18.48731928	      5.28630232	      3.64993778	      6.23600534	     16.96206480	      0.00000000	      0.00000000	      0.00000000	     21.15623265	      9.99327177	     50.67345435	     50.91276480	      5.43610955	      4.86349050	     13.20102253	      7.06055201	     18.14482471	      2.85842864	      8.80439550	      2.76629401	     36.18668385	     36.18668385	     13.44316717	     13.44316717	     30.81000741	     30.81000741	     95.35619030	    162.60855189	     16.26020178	    -10.42477754	      2.29163269	     37.35472931	    -95.35619030	   -162.60855189	    -16.26020178	      4.39317898	     -2.77444597	      2.84525329	     22.62801057	     19.71853366	     11.11913165	     -4.03703926	     -0.51735327	      9.08518129	    -22.62801057	    -19.71853366	    -11.11913165	     -0.22790772	      0.25253905	      0.06382574	   -781.97462778	   -701.89138953	    224.02622297	    -16.18160871	     17.60524478	     -1.36384191	    781.97462778	    701.89138953	   -224.02622297	    103.79787526	    -14.16958039	    317.95696093	      0.00000000	      0.00000000	      0.00000000	      0.00000000	      0.00000000	      0.00000000	      0.00000000	      0.00000000	      0.00000000	      0.00000000	      0.00000000	      0.00000000	     -4.61437390	      0.00000000	    586.97241959	    380.86742819	      0.00000000	      0.00000000	      0.00000000	      0.00000000	      0.00000000	      0.00000000	      0.00000000	      0.00000000	      0.00000001	      0.00000000
      0.16582028	     11.36916966	      8.30067997	      8.92720481	      3.83338801	      4.45716060	      4.81991439	      0.00000000	    167.95996617	    134.43779074	    291.66509865	    131.16655094	      8.26076989	      5.95001331	      3.71198570	      3.61926680	      6.09810474	      4.93805168	      3.23557187	    100.60666081	      5.35951196	      8.15308615	      6.12640278	     27.46431361	     18.43470180	      5.27072228	      3.64232801	      6.22814704	     54.93896704	     31.17395707	     33.21468893	     44.74012490	      0.00000000	      0.00000000	      0.00000000	      0.00000000	      0.00000000	      0.00000000	     34.44951904	      2.39215672	      2.99477341	     38.42771479	     43.46248870	     11.14860863	     11.36916966	      8.30067997	      8.92720481	      3.83338801	      4.45716060	      4.81991439	      0.00000000	      6.14907997	     12.14080669	     10.49062781	      2.18729540	      8.26076989	      5.95001331	      3.71198570	      3.61926680	      6.09810474	      5.40269502	      3.23557187	      2.25778440	      5.35951196	      8.15308615	      6.12640278	     27.46431361	     18.43470180	      5.27072228	      3.64232801	      6.22814704	     16.90385656	      0.00000000	      0.00000000	      0.00000000	     21.13813359	      9.98223470	     50.53260648	     50.83876213	      5.41977353	      4.84854817	     13.15819270	      7.03630162	     18.09936851	      2.85032281	      8.77407901	      2.75732259	     36.08206876	     36.08206876	     13.40117902	     13.40117902	     30.77194426	     30.77194426	     96.15489592	    163.03893146	     16.90392716	    -10.70324201	      2.31290213	     37.65933883	    -96.15489592	   -163.03893146	    -16.90392716	      4.42375407	     -2.81362117	      2.88983066	     22.87585961	     19.43817538	     10.91406983	     -3.96110700	     -0.51932504	      9.18076445	    -22.87585961	    -19.43817538	    -10.91406983	     -0.22599082	      0.25666519	      0.06318319	   -790.73616216	   -701.15941520	    223.78704732	    -16.09135009	     17.73717654	     -1.31100075	    790.73616216	    701.15941520	   -223.78704732	    103.64616663	    -14.29966955	    321.45017261	      0.00000000	      0.00000000	      0.00000000	      0.00000000	      0.00000000	      0.00000000	      0.00000000	      0.00000000	      0.00000000	      0.00000000	      0.00000000	      0.00000000	     -4.78615548	      0.00000000	    594.60717434	    385.15844994	      0.00000000	      0.00000000	      0.00000000	      0.00000000	      0.00000000	      0.00000000	      0.00000000	      0.00000000	      0.00000001	      0.00000000
      0.16603888	     11.35872424	      8.29309359	      8.91894802	      3.83002815	      4.45348466	      4.81521868	      0.00000000	    167.94238217	    134.48196310	    291.68005614	    131.13455647	      8.25313309	      5.94484681	      3.74579789	      3.61589872	      6.09200161	      4.92984456	      3.23271573	    100.57034135	      5.35459441	      8.14558848	      6.12068124	     27.45033629	     18.41876247	      5.26600203	      3.64002290	      6.22571192	     55.12988073	     31.10382178	     33.19725532	     44.73651464	      0.00000000	      0.00000000	      0.00000000	      0.00000000	      0.00000000	      0.00000000	     34.48289693	      2.38617019	      2.99655987	      0.00000000	     43.34979261	     11.09852427	     11.35872424	      8.29309359	      8.91894802	      3.83002815	      4.45348466	      4.81521868	      0.00000000	      6.14310299	     12.12916095	     10.48122205	      2.18538724	      8.25313309	      5.94484681	      3.74579789	      3.61589872	      6.09200161	      5.39893367	      3.23271573	      2.25578011	      5.35459441	      8.14558848	      6.12068124	     27.45033629	     18.41876247	      5.26600203	      3.64002290	      6.22571192	     16.88621575	      0.00000000	      0.00000000	      0.00000000	     21.13249372	      9.97881702	     50.48970442	     50.81630601	      5.41476030	      4.84394682	     13.14520021	      7.02894721	     18.08555896	      2.84786729	      8.76501129	      2.75465228	     36.05037269	     36.05037269	     13.38845865	     13.38845865	     30.76041395	     30.76041395	     97.11167742	    163.57970663	     17.44142947	    -10.94113005	      2.34304757	     38.04486920	    -97.11167742	   -163.57970663	    -17.44142947	      4.45480829	     -2.85748636	      2.89497093	     23.58885092	     19.69161561	     10.81301400	     -3.91283370	     -0.53858817	      9.47203974	    -23.58885092	    -19.69161561	    -10.81301400	     -0.23510630	      0.27641273	      0.05424000	   -792.85047605	   -700.16283153	    223.90851310	    -16.05716950	     17.77437359	     -1.30270755	    792.85047605	    700.16283153	   -223.90851310	    103.66719051	    -14.33149194	    322.29195283	      0.00000000	      0.00000000	      0.00000000	      0.00000000	      0.00000000	      0.00000000	      0.00000000	      0.00000000	      0.00000000	      0.00000000	      0.00000000	      0.00000000	     -4.75292823	      0.00000000	    596.89513023	    386.37054770	      0.00000000	      0.00000000	      0.00000000	      0.00000000	      0.00000000	      0.00000000	      0.00000000	      0.00000000	      0.00000001	      0.00000000
      0.16625748	     11.34829795	      8.28552946	      8.91071551	      3.82667803	      4.44981947	      4.81053657	      0.00000000	    167.92478668	    134.52871722	    291.70920966	    131.10464651	      8.24551874	      5.93969526	      3.77672445	      3.61254054	      6.08591635	      4.92158695	      3.22986790	    100.53544458	      5.34969135	      8.13811289	      6.11497658	     27.43640053	     18.40287065	      5.26129555	      3.63772470	      6.22325873	     55.32083596	     31.08586273	     33.18858537	     44.72855229	      0.00000000	      0.00000000	      0.00000000	      0.00000000	      0.00000000	      0.00000000	     34.51561186	      2.38030985	      2.99843207	     19.99319326	     43.46667819	     11.12258245	     11.34829795	      8.28552946	      8.91071551	      3.82667803	      4.44981947	      4.81053657	      0.00000000	      6.13714363	     12.11753612	     10.47184378	      2.18348462	      8.24551874	      5.93969526	      3.77672445	      3.61254054	      6.08591635	      5.39518318	      3.22986790	      2.25378167	      5.34969135	      8.13811289	      6.11497658	     27.43640053	     18.40287065	      5.26129555	      3.63772470	      6.22325873	     16.86862389	      0.00000000	      0.00000000	      0.00000000	     21.12679743	      9.97537497	     50.44682184	     50.79389908	      5.40973151	      4.83932378	     13.13223816	      7.02161091	     18.07177235	      2.84541906	      8.75602462	      2.75201194	     36.01876869	     36.01876869	     13.37577575	     13.37577575	     30.74891805	     30.74891805	     97.53742247	    163.94164734	     17.56563086	    -11.00250986	      2.35287545	     38.20958414	    -97.53742247	   -163.94164734	    -17.56563086	      4.46877108	     -2.87161911	      2.91206607	     23.12337658	     19.23371041	     10.68963179	     -3.87430818	     -0.52523998	      9.28252799	    -23.12337658	    -19.23371041	    -10.68963179	     -0.22694319	      0.26584995	      0.05584910	   -793.95923072	   -700.47126006	    225.20229445	    -16.07551940	     17.83255274	     -1.22659051	    793.95923072	    700.47126006	   -225.20229445	    104.19586080	    -14.35826124	    322.70466420	      0.00000000	      0.00000000	      0.00000000	      0.00000000	      0.00000000	      0.00000000	      0.00000000	      0.00000000	      0.00000000	      0.00000000	      0.00000000	      0.00000000	     -4.74806742	      0.00000000	    599.15702693	    387.51234102	      0.00000000	      0.00000000	      0.00000000	      0.00000000	      0.00000000	      0.00000000	      0.00000000	      0.00000000	      0.00000001	      0.00000000
